<?xml version="1.0" encoding="UTF-8" standalone="no"?>
<!-- Generator: Adobe Illustrator 21.1.0, SVG Export Plug-In . SVG Version: 6.00 Build 0)  -->

<svg
   xmlns:dc="http://purl.org/dc/elements/1.1/"
   xmlns:cc="http://creativecommons.org/ns#"
   xmlns:rdf="http://www.w3.org/1999/02/22-rdf-syntax-ns#"
   xmlns:svg="http://www.w3.org/2000/svg"
   xmlns="http://www.w3.org/2000/svg"
   xmlns:sodipodi="http://sodipodi.sourceforge.net/DTD/sodipodi-0.dtd"
   xmlns:inkscape="http://www.inkscape.org/namespaces/inkscape"
   version="1.1"
   id="LogoGeert_xA0_Image_1_"
   xml:space="preserve"
   sodipodi:docname="logo.svg"
   inkscape:export-filename="/home/frank/logo.png"
   inkscape:export-xdpi="80.043503"
   inkscape:export-ydpi="80.043503"
   inkscape:version="0.92.2 2405546, 2018-03-11"><metadata
   id="metadata3819"><rdf:RDF><cc:Work
       rdf:about=""><dc:format>image/svg+xml</dc:format><dc:type
         rdf:resource="http://purl.org/dc/dcmitype/StillImage" /><dc:title></dc:title></cc:Work></rdf:RDF></metadata><defs
   id="defs3817">
	
	
	
	
	
	
	
	
	
	
	
	
</defs><sodipodi:namedview
   pagecolor="#ffffff"
   bordercolor="#666666"
   borderopacity="1"
   objecttolerance="10"
   gridtolerance="10"
   guidetolerance="10"
   inkscape:pageopacity="0"
   inkscape:pageshadow="2"
   inkscape:window-width="2146"
   inkscape:window-height="2156"
   id="namedview3815"
   showgrid="false"
   showborder="false"
   inkscape:zoom="1.7332955"
   inkscape:cx="227.43963"
   inkscape:cy="-147.45063"
   inkscape:window-x="1920"
   inkscape:window-y="0"
   inkscape:window-maximized="0"
   inkscape:current-layer="LogoGeert_xA0_Image_1_" />
<style
   type="text/css"
   id="style3786">
	.st0{fill:#FFFFFF;}
</style>
<path
   inkscape:connector-curvature="0"
   id="path3788"
   d="m 171.4,379.7 c -7.1,1 -13.8,2.5 -20.7,2.8 -12.1,0.4 -22,-4.9 -30.1,-13.5 -3.6,-3.9 -6.5,-8.5 -9.8,-12.6 -0.6,-0.8 -1.7,-1.6 -2.6,-1.8 -6.2,-0.9 -12.5,-0.8 -18.4,-3.2 -11.2,-4.5 -21.6,-10.2 -31.3,-17.4 -5.1,-3.7 -6.6,-8.5 -5.3,-14.2 0.9,-4 2.3,-7.9 3.5,-12.1 -17.3,-7.9 -30.3,-21.3 -40.3,-37.8 -4.9,-8.1 -6.3,-17 -4.3,-26.2 0.5,-2.3 2.9,-4.6 5,-6 2.6,-1.8 5.9,-2.6 9.1,-4 -1,-2.6 -2,-5.3 -3,-8.1 -4,-10.9 -6.6,-22.2 -6.8,-33.8 -0.1,-8.9 0.7,-17.8 3.5,-26.3 1.9,-5.9 5.7,-10.6 10.4,-14.7 6.3,-5.4 12.9,-10.3 20.4,-13.9 0.7,-0.3 1.5,-1.5 1.4,-2.1 -1.8,-10.2 1.1,-19.8 4.1,-29.4 4.6,-14.9 10.4,-29.3 18.5,-42.6 7.8,-12.7 15.9,-25.2 26,-36.3 3.1,-3.4 6.1,-6.9 9.6,-10.8 0,1.1 0.1,1.4 0,1.7 -5.4,10.6 -9,21.8 -11.9,33.2 -3.2,12.5 -3.4,25.3 -2.6,38.2 0.6,11.3 2.7,22.4 6.2,33.1 2.5,7.4 5.8,14.6 9.1,21.8 2.9,6.4 5.9,12.6 9.2,18.8 2.6,4.9 5.7,9.5 8.6,14.2 3.6,5.8 7,11.6 10.8,17.3 1.7,2.6 3.9,4.8 5.8,7.2 2.2,2.8 4.4,5.7 6.6,8.6 8.9,11.7 19.7,21.6 31,31 7,5.8 13.9,11.7 21.4,16.8 9.2,6.3 19.3,10 31.3,8.3 0.6,-5.3 1.3,-10.8 2,-16.4 0.5,-4.2 1.1,-8.4 1.7,-12.6 2.2,-16.4 10.7,-29.6 21,-41.9 0.8,-0.9 1.6,-1.8 2.6,-2.4 5.2,-3.4 10,-7.5 16.1,-9.3 2,-0.6 4.1,-0.9 6.2,-0.8 11.3,0.4 22.7,0.7 33.3,5.6 2.5,1.1 4.9,2.6 7.6,4.1 14.7,-13.6 30.8,-25.9 50.4,-32.7 -3.2,2.4 -6.4,4.8 -9.5,7.3 -9.8,7.9 -18.2,17.1 -24.7,27.9 -1.4,2.3 -2.8,4.6 -4,7.1 -0.4,0.9 -0.5,2.1 -0.2,3.1 2.3,7.1 3.9,14.4 3.5,21.9 -0.3,6.1 -1.3,12.1 -1.9,18.1 -0.5,6 -0.9,11.9 -1.3,17.9 0,0.8 0.2,1.5 0.3,2.7 0.8,-0.6 1.4,-0.8 1.8,-1.3 5.3,-7.8 13.4,-12.7 20.3,-18.9 11.6,-10.5 21.4,-22.6 29.1,-36.2 4.5,-8 8.5,-16.5 11.6,-25.2 5.5,-15.2 9.8,-30.7 11.7,-46.9 2.4,-21 1.3,-41.7 -4.5,-62.1 -1.4,-4.8 -3.4,-9.4 -5.2,-14 -0.2,-0.5 -0.3,-1 -0.5,-1.5 0.2,-0.2 0.4,-0.4 0.6,-0.6 2.2,1.8 4.7,3.4 6.6,5.6 7.8,9.1 15.2,18.5 20.9,29.2 5.4,10.2 10.4,20.6 12.7,32 0.8,3.9 -0.2,8.1 0.3,12.1 0.3,2.4 1.5,4.9 2.8,7.1 2,3.2 4.4,6.2 6.6,9.3 7.5,10.6 9.7,22.5 8.4,35.2 -0.1,0.9 0,1.9 -0.3,2.7 -2.1,5.4 0.3,10 2.6,14.6 3.2,6.6 5.2,13.5 3.9,20.8 -0.8,5 -2.4,9.9 -4.2,14.6 -1.6,4 -3.7,7.9 -6,11.6 -1.3,2 -1.6,4 -1.2,6.2 2.3,11 0,21.1 -4.9,31.1 -5,10 -11.3,18.9 -19.8,26 -3.9,3.3 -9,5.2 -13.5,7.8 -0.9,0.5 -1.8,1.4 -2.2,2.3 -2.1,5.5 -3.3,11.5 -6.2,16.5 -8.6,15 -21.4,24.4 -39,26.4 -4.3,0.5 -8.5,-0.3 -12.1,-3.1 -1.6,-1.3 -2.8,-1.1 -4.7,0.2 -12.7,9.1 -25.4,18.2 -38.4,26.8 -12.4,8.2 -25.2,15.9 -37.8,23.7 -10.4,6.5 -20.8,12.8 -31.2,19.4 -8.6,5.5 -17.2,11.2 -25.8,16.7 -9.7,6.3 -19.5,12.5 -29.2,19 -5.1,3.4 -10,7.3 -15.1,10.8 -6,4.1 -12.2,7.8 -18.1,12.1 -7.5,5.3 -14.6,11.2 -22.1,16.4 -19.4,13.7 -38.9,27.1 -58.3,40.7 -6.3,4.4 -12.4,9.1 -18.6,13.7 -0.6,0.4 -1.2,0.7 -1.8,1.1 -0.2,-0.2 -0.4,-0.4 -0.6,-0.7 4.5,-4.1 8.7,-8.6 13.5,-12.3 12.3,-9.6 24.9,-18.9 37.2,-28.5 13.4,-10.4 26.6,-21.1 40.1,-31.4 15.2,-11.7 30.3,-23.5 45.9,-34.6 11.6,-8.2 23.8,-15.6 35.8,-23 6.9,-4.3 14.4,-7.7 21.1,-12.2 4,-2.7 7.8,-6.2 10.6,-10 13.1,-18.2 19,-38.6 17.1,-61 -0.4,-4.5 -2,-9 -3.3,-13.4 -2.3,-8.1 -5.1,-16 -6.8,-24.2 -1.3,-6.4 -0.2,-13.3 3.1,-18.7 4.5,-7.4 10.4,-13.9 15.7,-20.7 0.6,-0.8 1.8,-1.1 2.7,-1.6 0.2,0.2 0.3,0.4 0.5,0.6 -2.5,3.2 -5,6.3 -7.3,9.6 -6.2,8.4 -11,17.5 -10.8,28.2 0.1,7.4 2.4,14.6 5.8,21.1 6.9,13.1 8.6,27 8.1,41.5 -0.1,4.3 -0.1,8.5 0,12.8 0,1 0.6,2 0.9,2.9 1.1,-0.4 2.4,-0.4 3.2,-1.1 8.1,-7.1 15.2,-15.1 20.8,-24.3 2.6,-4.3 4.8,-8.9 7.1,-13.4 0.7,-1.3 0.7,-3 1.2,-4.4 0.2,-0.7 0.7,-1.3 1,-2 0.5,0.5 1.2,1 1.4,1.6 1.7,5.6 2.1,11.4 1,17.2 -0.7,3.3 -0.9,6.8 -1.4,10.7 11.2,-6 22.4,-11.2 29.9,-21.5 2.3,-3.1 4.6,-6.1 6.5,-9.4 4.4,-7.8 3.6,-16.1 2.1,-24.4 -1.7,-9.6 -5.6,-18.4 -11.5,-26.2 -5.1,-6.7 -11.3,-12.2 -20,-13.6 -2.7,-0.4 -5.4,-0.1 -8.4,-0.1 0.7,-0.7 1.3,-1.8 2.3,-2.3 3,-1.7 6.1,-3.2 9.2,-4.7 1.4,-0.6 1.6,-1.4 1.6,-2.9 -0.1,-6.1 0,-12.1 0.3,-18.2 0.3,-4.7 0.9,-9.4 1.6,-14 0.5,-3.3 1.4,-6.5 1.9,-9.8 0.9,-5.8 -0.7,-11.1 -3.7,-16.3 -2.7,4.5 -5,9.1 -8,13.1 -2.7,3.6 -6,7.1 -9.6,9.9 -5.6,4.2 -13.5,2.4 -17.2,-3.6 -0.5,-0.9 -0.2,-3.3 0.4,-3.7 7.4,-4 12.5,-10.7 18.8,-16 0.8,-0.7 1.7,-1.1 2.6,-1.7 0.2,0.2 0.4,0.5 0.6,0.7 -5.4,5.5 -10.9,11 -16.3,16.6 2.5,2.7 4.6,3.2 7.4,2.1 4.5,-1.9 7.2,-5.6 9.6,-9.3 4.6,-7.2 8.5,-14.8 13,-22 2.8,-4.4 6.1,-8.6 9.1,-12.8 0.8,-1.2 1.6,-2.3 2.4,-3.5 -0.2,-0.2 -0.4,-0.5 -0.7,-0.7 -2.8,2.1 -5.7,4.1 -8.3,6.5 -8.5,7.7 -16.8,15.5 -24.2,24.3 -2.2,2.6 -5.3,4.3 -8.1,6.3 -2.6,1.9 -5.2,3.7 -7.9,5.4 -1.1,0.7 -2.3,1.2 -3.4,1.6 -0.5,0.2 -1.1,-0.2 -1.7,-0.3 0.3,-0.5 0.4,-1.2 0.8,-1.5 5.9,-5.1 11.8,-10.1 17.6,-15.4 3.5,-3.2 6.7,-6.9 10,-10.3 -3.7,-3.6 -7.9,-5.9 -12.6,-7 -7.7,-1.8 -15.4,-3.2 -23.2,-4.6 -5,-0.9 -9.4,1.2 -13.7,3.6 -8.5,4.6 -13.5,12.4 -18.5,20.2 -4.7,7.3 -7.3,15.6 -9.9,23.8 -1.2,3.7 -1.3,7.8 -1.9,11.8 -1.2,8.8 -1,17.9 -4.3,26.4 -0.8,2.2 -1.9,4.3 -3.1,6.3 -0.4,0.7 -1.6,1.4 -2.4,1.4 -3.8,0 -7.7,0.4 -11.3,-0.5 -18.6,-4.6 -35,-13.9 -50.9,-24.1 -17.3,-11.1 -34.4,-22.5 -50.2,-35.6 -13.2,-11 -26.5,-21.8 -39.8,-32.7 -11.7,-9.5 -23.4,-19 -35.1,-28.5 -0.7,-0.6 -1.4,-1.2 -2,-1.9 -2.9,-3.2 -2.8,-3 -6.6,-0.7 -6.2,3.9 -8.7,9.7 -9.1,16.7 -0.7,13.7 0.5,27.2 7,39.5 3.4,6.4 8,12.1 12.2,18 1.4,2 3.5,2.9 6.1,2.9 10.5,-0.1 20.4,3.2 30.4,5.7 14.4,3.6 28.2,9 41.9,14.6 11.3,4.6 22.9,8.7 34.5,12.8 10.4,3.8 20.8,7.6 31.3,11.1 7,2.4 14,4.3 21.1,6.4 3.1,0.9 4.9,2.9 5.5,6.1 0.5,2.8 1.6,5.6 1.4,8.4 -0.3,4.9 -1.1,9.9 -2.2,14.7 -1.4,5.9 -2.8,11.9 -5.3,17.4 -4.6,10.1 -8.8,20.5 -16.3,29 -6.9,7.7 -12.7,16.3 -16.7,25.9 -3.7,8.9 -8.3,17.3 -14,25.2 -5.8,8.1 -12.9,14.6 -21,20.2 -1.7,1.2 -3.2,2.7 -4.9,3.9 -0.7,0.5 -1.7,0.8 -2.6,1 7.1,-9 17.1,-15.2 23.1,-25.2 5.8,-10.4 9.9,-20.9 14.1,-30.9 z M 25.3,255.4 c 0.2,0.8 0.2,1.4 0.3,1.9 1.9,7.9 6.5,14.4 10.7,21 5.5,8.7 12.8,15.8 22,20.7 1.9,1 4.3,1.7 6.5,1.7 7.1,0 14.1,-0.4 21.2,-0.7 11.4,-0.5 22.9,-0.9 34.3,-1.7 11,-0.8 22,-2.4 33.1,-3.1 14.7,-0.9 29.2,-3.2 43.7,-5.6 1.2,-0.2 2.3,-0.8 3.5,-1.2 -0.1,-0.3 -0.1,-0.6 -0.2,-0.8 -1.8,-0.6 -3.5,-1.4 -5.3,-1.9 -12.9,-3.2 -25.8,-6.5 -38.2,-11.3 -10.1,-3.9 -20.5,-6.8 -30.8,-10.2 -13.5,-4.5 -27.2,-8 -41.1,-10.4 -11.6,-1.9 -23.2,-4.3 -35.2,-3.2 -8.3,0.7 -16.5,1.9 -24.5,4.8 z m 420,-100.5 c -1.1,2.1 -1.6,3.8 -2.7,5.1 -6.3,8.4 -12.5,17 -19.2,25.1 -11.7,14.2 -23.7,28.2 -35.8,42.2 -4.6,5.3 -9.4,10.4 -14.4,15.3 -5.3,5.2 -10.7,10.3 -16.5,15 -4.5,3.7 -9.6,6.8 -14.4,10.2 -0.6,0.4 -1.3,1.6 -1.1,2.1 1.1,3 4.5,4.6 7.6,3.4 6.3,-2.5 12.8,-4.7 18.7,-7.9 10.4,-5.6 20.5,-11.6 30.5,-17.8 7.8,-4.8 15.3,-10.1 23,-15.1 10.1,-6.6 19,-14.6 26.8,-23.8 1.9,-2.2 3.6,-4.9 4.7,-7.6 2.8,-6.5 3.1,-13.3 2.1,-20.2 -1.1,-7.8 -2.8,-15.4 -6.8,-22.3 -0.6,-1.2 -1.4,-2.2 -2.5,-3.7 z m -92.8,126.5 c 1.4,1.1 2.8,1.9 3.8,3.1 2.5,3.1 5.7,4.1 9.5,3.5 3.5,-0.5 7.1,-0.8 10.4,-1.9 12.8,-4.2 25.7,-8.3 38.3,-13.3 9.6,-3.8 19.1,-7.7 27.9,-13.3 9.2,-5.9 14.8,-13.7 15.5,-24.7 0.2,-3.9 -0.3,-7.9 -0.5,-12.2 -33.3,23 -68.4,41.2 -104.9,58.8 z M 81.1,340.9 c 12.1,4.3 23.4,11.6 37.1,5.7 6.3,-2.7 12.9,-4.8 19.1,-7.6 5.5,-2.5 10.9,-5.5 16.2,-8.4 9.1,-5 18.3,-9.7 27.1,-15.2 6.3,-3.9 12.1,-8.6 18,-13.1 3.5,-2.7 6.6,-5.7 9.9,-8.6 -0.3,-0.2 -0.5,-0.4 -0.8,-0.6 -42.1,15.9 -84.2,31.8 -126.6,47.8 z m 285.3,-40.2 c 1.2,3.7 2.4,7.4 3.4,11.1 0.4,1.5 1,2 2.5,2.3 8.8,1.7 17.6,2.3 26.5,2.3 7.2,0 13.5,-1.7 19.7,-5.5 6.8,-4.1 10.7,-10.1 13.8,-16.9 0.6,-1.3 1,-2.7 1.6,-4.3 -22.6,5.3 -44.7,10.2 -67.5,11 z m -151.8,0.7 c -0.4,-0.1 -0.8,-0.3 -1.2,-0.4 -0.7,0.9 -1.5,1.8 -2.2,2.7 -3.4,3.6 -6.7,7.4 -10.3,10.9 -6.1,6 -12.5,11.6 -18.4,17.7 -5.5,5.8 -7.7,13.2 -7.1,21.1 0.3,4.3 1.3,8.7 3.9,12.4 8.3,-4.4 14,-11.2 18.8,-18.7 5.1,-8 8.9,-16.8 11.5,-26 1.8,-6.6 3.3,-13.2 5,-19.7 z m 145.9,57.4 c 0.5,0.3 1,0.8 1.5,1 8.4,2.4 16.4,1.3 23.8,-3.3 0.9,-0.5 1.8,-2.2 1.6,-2.9 -0.4,-1.1 -1.7,-2.1 -2.9,-2.5 -5.1,-1.5 -10.3,-2.7 -15.4,-4 -2.8,3.8 -5.6,7.7 -8.6,11.7 z" /><path
   inkscape:connector-curvature="0"
   id="path3790"
   d="m 274.4,205 c 7,-0.4 10,6 10.3,11 0.2,2.8 -5,7.6 -8.7,8 -4.4,0.5 -8.4,-0.7 -11.7,-3.9 -4,-3.9 -2.5,-8.1 1.7,-12.5 2.2,-2.2 5.3,-2.9 8.4,-2.6 z m 5.7,12.7 c -2,0.9 -4.1,1.7 -6.4,2.7 2.3,1.4 5,0.4 6.4,-2.7 z m -9.7,-8.7 c -1.1,1.2 -2.1,1.9 -2.1,2.5 0.1,0.7 1,1.6 1.8,1.8 0.4,0.1 1.6,-0.9 1.7,-1.5 0.1,-0.6 -0.3,-2.3 -1.4,-2.8 z" /><path
   inkscape:connector-curvature="0"
   id="path3792"
   d="m 292.1,218.3 c -0.9,-2.1 -1.8,-4 -2.4,-5.9 -1.4,-4.4 -4.5,-7.4 -7.9,-10.1 -3.7,-2.9 -7.9,-2.8 -12.1,-1.1 -0.9,0.4 -1.9,0.7 -3.4,1.2 3.6,-5.2 12.6,-6.1 17.1,-2.2 4.7,4.2 8.2,11.4 8.7,18.1 z" /><path
   style="fill:#ffffff"
   inkscape:connector-curvature="0"
   id="path3808"
   d="m 280.1,217.7 c -1.4,3.1 -4.1,4 -6.4,2.7 2.2,-1.3 4.4,-2.4 6.4,-2.7 z"
   class="st0" /><path
   style="fill:#ffffff"
   inkscape:connector-curvature="0"
   id="path3810"
   d="m 270.4,209 c 1.6,0.7 1.7,1.7 1.4,2.8 -0.1,0.6 -0.8,1.5 -1.7,1.5 -1,0 -1.7,-1.1 -1.8,-1.8 0,-0.5 0.2,-1.8 2.1,-2.5 z"
   class="st0" />
</svg>